<?xml version="1.0" encoding="UTF-8"?>
<svg id="Layer_2" data-name="Layer 2" xmlns="http://www.w3.org/2000/svg" viewBox="0 0 396.39 396.39">
  <defs>
    <style>
      .cls-1 {
        fill: #000;
      }

      .cls-1, .cls-2 {
        stroke-width: 0px;
      }

      .cls-2 {
        fill: #fff;
      }
    </style>
  </defs>
  <g id="mail">
    <g>
      <path class="cls-2" d="M396.39,293.62v102.77H0V0h396.39v101.99c-.68-2.33-1.26-4.69-2.05-6.98-5.66-16.59-20.79-26.86-39.64-26.87-92.98-.01-185.95,0-278.93,0-11.72,0-23.44-.14-35.16.03C17.78,68.51.8,85.78.79,108.57c-.02,59.49-.03,118.99.04,178.48,0,3.57.31,7.24,1.18,10.68,4.52,17.9,20.36,29.71,39.76,29.72,58.34.04,116.67.01,175.01.01,46.1,0,92.2-.02,138.31.01,13.91,0,25.6-4.97,33.53-16.47,3.54-5.14,5.23-11.56,7.76-17.39Z"/>
      <path class="cls-1" d="M396.39,293.62c-2.53,5.84-4.22,12.26-7.76,17.39-7.93,11.5-19.62,16.48-33.53,16.47-46.1-.03-92.2-.01-138.31-.01-58.34,0-116.67.02-175.01-.01-19.4-.01-35.24-11.83-39.76-29.72-.87-3.44-1.18-7.11-1.18-10.68-.07-59.49-.06-118.99-.04-178.48,0-22.79,16.98-40.06,39.83-40.39,11.72-.17,23.44-.03,35.16-.03,92.98,0,185.95,0,278.93,0,18.84,0,33.98,10.28,39.64,26.87.78,2.29,1.37,4.65,2.05,6.98v191.63ZM51.62,94.59c1.13,1.31,1.73,2.1,2.43,2.8,46.32,46.34,92.64,92.68,138.97,139,4.28,4.28,6.83,4.28,11.11.01,46.43-46.41,92.85-92.83,139.26-139.26.64-.64,1.11-1.45,1.94-2.54H51.62ZM338,300.99c-26.97-26.98-53.71-53.72-81.03-81.05-.64.87-1.35,2.14-2.34,3.13-10.71,10.78-21.42,21.56-32.23,32.24-14.32,14.15-33.36,14.11-47.7-.06-7.7-7.6-15.33-15.27-22.95-22.95-4.06-4.09-8.03-8.28-11.13-11.49-27.15,27.15-53.9,53.9-80.17,80.16h277.55ZM27.24,108.44c-.1.59-.22.94-.22,1.3,0,59.32-.02,118.65.03,177.97,0,1.77.69,3.53,1.06,5.36,30.97-30.97,61.51-61.51,91.88-91.88-30.69-30.69-61.61-61.61-92.75-92.75ZM277.65,200.62c30.46,30.46,61.05,61.06,91.46,91.47,1.18-2.75,1.82-178.93.46-183.39-30.85,30.85-61.78,61.78-91.92,91.92Z"/>
      <path class="cls-2" d="M51.62,94.59h293.7c-.83,1.09-1.3,1.9-1.94,2.54-46.41,46.43-92.82,92.86-139.26,139.26-4.27,4.27-6.82,4.27-11.11-.01-46.34-46.32-92.66-92.66-138.97-139-.69-.7-1.29-1.49-2.43-2.8Z"/>
      <path class="cls-2" d="M338,300.99H60.45c26.27-26.27,53.01-53.01,80.17-80.16,3.11,3.21,7.08,7.39,11.13,11.49,7.62,7.68,15.25,15.35,22.95,22.95,14.35,14.16,33.38,14.2,47.7.06,10.81-10.68,21.52-21.47,32.23-32.24.99-.99,1.7-2.26,2.34-3.13,27.32,27.33,54.06,54.07,81.03,81.05Z"/>
      <path class="cls-2" d="M27.24,108.44c31.14,31.14,62.06,62.06,92.75,92.75-30.36,30.37-60.91,60.91-91.88,91.88-.38-1.82-1.06-3.59-1.06-5.36-.05-59.32-.04-118.65-.03-177.97,0-.36.12-.72.22-1.3Z"/>
      <path class="cls-2" d="M277.65,200.62c30.14-30.14,61.07-61.07,91.92-91.92,1.36,4.46.72,180.64-.46,183.39-30.41-30.41-61-61-91.46-91.47Z"/>
    </g>
  </g>
</svg>