<?xml version="1.0" encoding="UTF-8"?>
<svg id="Layer_2" data-name="Layer 2" xmlns="http://www.w3.org/2000/svg" viewBox="0 0 472.68 470.47">
  <defs>
    <style>
      .cls-1 {
        fill: #000;
      }

      .cls-1, .cls-2 {
        stroke-width: 0px;
      }

      .cls-2 {
        fill: #fff;
      }
    </style>
  </defs>
  <g id="twitter">
    <g>
      <path class="cls-1" d="M236.4,470.47c-58.62,0-117.24.01-175.86-.02-5.12,0-10.23-.24-15.35-.41-1.09-.03-2.14-.04-3.01-1.07-.41-.49-1.47-.47-2.24-.61-1.6-.3-3.4.07-4.62-1.53-.22-.29-.91-.2-1.36-.35-.78-.26-1.82-.07-2.13-1.22-.05-.2-.51-.37-.79-.4-1.27-.16-2.2-.62-3.21-1.59-.83-.8-2.23-1.55-3.34-1.94-1.37-.48-1.57-2.27-3.12-2.18-2.27-2.55-5.28-4.34-7.32-7.1-1.55-2.09-3.27-4.04-4.85-6.11-.37-.49-.53-1.15-.77-1.73-.12-.29-.14-.81-.31-.85-1.44-.38-1.31-1.62-1.6-2.66-.13-.47-.52-.88-.81-1.3-.08-.12-.31-.17-.36-.29-.75-2.12-1.58-4.22-2.17-6.39-.38-1.43-.13-3.02-1.49-4.15-.32-.27-.28-1.04-.31-1.59-.11-2-.1-4-.29-5.99-.16-1.66-.59-3.28-.83-4.94-.16-1.1-.26-2.22-.26-3.33C0,390.56,0,368.41,0,346.25,0,250.81,0,155.38,0,59.95c0-2.31.15-4.57.63-6.87.6-2.87.51-5.88.71-8.83.08-1.18.04-2.27,1-3.3.61-.66.6-1.92.76-2.93.2-1.24.02-2.56,1.25-3.47.3-.23.27-.88.45-1.31.37-.9.09-2.12,1.41-2.58.25-.09.26-.86.39-1.31.23-.81.12-1.79,1.24-2.12.23-.07.43-.44.52-.72.67-1.91,1.91-3.38,3.21-4.91,1.12-1.32,2.46-2.56,3.31-4.01,1.56-2.66,4.64-3.64,6.22-6.18,2.42-.94,3.72-3.6,6.46-4.11.94-.17,1.15-1.58,2.41-1.6.87-.01,1.98-.13,2.24-1.38.01-.05.13-.12.2-.11,2.79.12,4.74-2.55,7.63-2.29.82.07,1.7-.64,2.58-.91.97-.3,1.95-.67,2.94-.7C49.73.14,53.89.01,58.05.01c119.08-.01,238.16-.02,357.24,0,4.08,0,8.15.16,12.23.25,1.37.03,2.63.27,3.8,1.16.62.47,1.63.5,2.48.61,1.25.17,2.59,0,3.41,1.29.07.12.27.22.41.22,2.11-.04,3.49,1.73,5.41,2.18.47.11.87.57,1.29.88.24.18.45.52.71.56,2.18.33,3.49,1.99,5.05,3.26.24.2.54.37.84.46,1.76.54,2.67,2.06,3.88,3.25.89.87,1.93,1.58,2.81,2.46.88.88,1.49,2.11,2.49,2.77,1.71,1.13,1.73,3.32,3.38,4.55,1.1.82,1.49,2.57,2.22,3.9.25.46.58.87.83,1.32.26.45.54.91.69,1.4.29.96.26,1.96,1.33,2.65.49.32.49,1.44.64,2.21.2,1.06.01,2.18,1.21,2.94.43.27.46,1.28.56,1.97.29,1.93-.09,3.97,1.29,5.71.37.47.22,1.39.24,2.11.08,3.2.2,6.4.2,9.6.01,118.23.01,236.46,0,354.7,0,3.36-.08,6.72-.24,10.07-.04.9-.57,1.76-.76,2.66-.28,1.31-.49,2.64-.67,3.97-.17,1.3.14,2.66-1.3,3.62-.47.31-.39,1.47-.51,2.25-.16,1.02-.1,2.1-1.22,2.69-.19.1-.43.38-.41.55.2,2.16-1.65,3.43-2.32,5.23-.47,1.25-1.26,2.54-2.44,3.43-.24.18-.54.43-.59.7-.39,2.16-2.39,3.1-3.45,4.68-1.23,1.82-3.11,2.92-4.31,4.75-.68,1.04-2.13,1.6-3.25,2.34-1.32.87-2.77,1.58-3.74,2.91-.13.18-.32.4-.52.43-1.28.21-2.2.82-3.23,1.69-1.23,1.05-3.04,1.43-4.61,2.06-.86.35-1.79.35-2.51,1.2-.41.48-1.45.52-2.22.59-1.36.12-2.62.25-3.81,1.13-.69.52-1.8.61-2.73.65-5.27.19-10.55.42-15.82.42-58.54.03-117.08.02-175.62.02ZM212.78,268.67c.86.84,2.1,1.49,2.36,2.42.75,2.65,3.11,4.07,4.39,6.31.9,1.59,2.83,2.57,3.27,4.6.06.27.34.5.55.72.88.87,2.18,1.58,2.58,2.63.78,2.03,2.08,3.48,3.57,4.95.93.91,1.36,2.31,2.26,3.26.95,1,1.36,2.36,2.17,3.28,1.33,1.52,2.73,2.92,3.61,4.8.44.95,1.01,2.16,1.84,2.53,1.42.63,1.33,2.45,2.76,2.87.65,2.04,1.93,3.62,3.63,4.89-.2,1.51,1.83,1.43,1.95,2.66.18,1.8,1.78,2.69,2.63,4.03.92,1.45,2.5,2.48,3.15,4.21.11.29.29.57.49.82,1.76,2.21,3.86,4.14,5.12,6.76.48,1,1.24,1.91,2.03,2.7,1.1,1.1,2.16,2.18,2.9,3.59.77,1.46,1.97,2.66,2.96,3.95.87,1.14,2.2,1.98,2.66,3.58.35,1.23,1.46,2.27,2.33,3.32.79.95,2.05,1.65,2.5,2.71.83,1.98,2.25,3.38,3.55,4.98.6.74,1.44,1.38,1.84,2.19.53,1.06.93,2.03,1.85,2.92.64.62,1.14,1.46,1.86,2.15,1,.96,1.53,2.39,2.32,3.57.71,1.07,1.44,2.13,2.26,3.1.8.95,2.1,1.63,2.53,2.7.81,2,1.93,3.62,3.63,4.89-.28,1.56,1.69,1.43,1.95,2.66.4,1.88,1.98,2.97,3.12,4.38.7.87,1.6,1.65,2.1,2.58,1.03,1.92,2.39,2.66,4.55,2.65,13.11-.06,26.23-.03,39.34-.03,17.11,0,34.23,0,51.34,0,1.17,0,2.38.16,3.57-.7-.38-.4-.91-.7-.95-1.05-.19-1.92-2.24-2.66-2.68-4.54-.24-1.06-1.72-1.78-2.51-2.77-.89-1.12-1.63-2.37-2.43-3.57-.26-.4-.45-.85-.74-1.22-1.71-2.2-3.87-4.03-5.04-6.67-.44-1.01-1.3-1.86-2.07-2.69-1.13-1.23-2.34-2.37-3.05-3.92-.19-.42-.35-.88-.65-1.21-.81-.88-2.16-1.57-2.42-2.57-.33-1.28-1.81-1.46-1.92-2.53-.18-1.84-2.18-2.42-2.53-4.07-2.37-1.49-2.99-4.38-4.95-6.21-.64-.6-1.14-1.35-1.73-2.01-1.27-1.43-2.1-3.17-3.22-4.71-.77-1.05-1.73-2.07-2.5-3.12-.83-1.14-1.37-2.43-2.24-3.51-.84-1.05-2.11-1.84-2.68-2.99-.65-1.32-2.31-1.96-2.31-3.66,0-.23-.38-.46-.59-.69-.85-.93-1.72-1.83-2.53-2.79-.63-.75-1.2-1.56-1.74-2.38-.83-1.28-1.39-2.84-2.48-3.83-1.45-1.32-2.51-2.83-3.47-4.49-.6-1.04-1.26-2.13-2.16-2.89-1.14-.96-1.86-2.19-2.73-3.32-.92-1.2-1.51-2.68-2.52-3.78-1.28-1.4-2.8-2.57-3.34-4.52-.08-.28-.33-.53-.54-.75-.86-.92-1.77-1.79-2.59-2.74-.64-.74-1.23-1.54-1.75-2.37-.82-1.29-1.32-2.89-2.4-3.88-1.56-1.44-2.79-2.98-3.68-4.9-.46-.99-1.4-1.75-2.1-2.63-.95-1.18-1.93-2.34-2.83-3.55-.85-1.15-1.51-2.46-2.46-3.52-1.21-1.36-2.57-2.57-3.2-4.35-.12-.34-.42-.64-.68-.92-.84-.94-1.72-1.84-2.52-2.8-.63-.75-1.21-1.55-1.75-2.37-.83-1.27-1.38-2.83-2.46-3.81-1.46-1.32-2.46-2.88-3.46-4.5-.64-1.02-1.38-1.98-2.15-2.91-.4-.48-2.73-3.31-2.99-3.71-.78-1.19-1.48-2.49-2.46-3.5-1.08-1.1-2.02-2.31-2.77-3.59-.85-1.45-2.02-2.57-3.03-3.85-.89-1.13-1.67-2.35-2.49-3.54-.77-1.12-1.32-2.53-2.34-3.31-1.35-1.03-2.05-2.43-2.97-3.71-.8-1.11-1.25-2.61-2.28-3.37-2.32-1.71-3.05-4.53-5.03-6.44-.95-.92-1.59-2.16-2.51-3.12-1.46-1.52-1.54-3.33.04-4.74.9-.8,1.54-1.81,2.49-2.61,1.56-1.31,2.51-3.38,4.12-4.6,1.74-1.32,3.11-3,4.52-4.52,1.43-1.53,3.07-2.95,4.31-4.74,1.17-1.7,3.02-2.92,4.41-4.49,2.16-2.43,4.16-4.99,6.27-7.46.72-.85,1.55-1.61,2.34-2.39.93-.92,1.91-1.8,2.81-2.74.86-.9,1.6-1.92,2.48-2.79.84-.83,2-1.39,2.65-2.32,1.46-2.11,3.35-3.79,5.08-5.62.81-.85,1.51-1.81,2.28-2.7,1-1.17,1.95-2.39,3.03-3.47,1.43-1.42,2.41-3.3,4.27-4.29,0-1.59,1.97-1.55,2.38-2.96.22-.79,1.29-1.34,1.99-1.99.91-.85,1.96-1.58,2.69-2.55.91-1.2,1.87-2.27,3.03-3.23.86-.71,1.63-1.58,2.27-2.5,1.37-1.98,3.33-3.42,4.62-5.54,1.07-1.76,3.34-2.78,4.47-4.52,1.16-1.79,3.31-2.65,4-4.76,2.01-.84,2.71-3.05,4.46-4.23.79-.53,1.62-1.38,2.19-2.19.87-1.23,2.02-2.14,3-3.22,1.4-1.54,2.83-3.04,4.19-4.61,2.13-2.46,4.21-4.97,6.31-7.46,1.38.09.96-1.5,1.8-1.92,1.9-.95,3.09-2.76,4.43-4.23,1.46-1.61,2.92-3.37,4.45-4.87,2.94-2.89,5.31-6.25,8.21-9.16.24-.24.12-.86.19-1.5-1.02-.05-1.88-.13-2.75-.13-3.04-.01-6.08,0-9.12,0-4.4,0-8.8,0-13.19,0-1.44,0-2.57.23-3.73,1.53-.93,1.05-1.65,2.27-2.65,3.26-1.48,1.47-3.2,2.79-4.34,4.49-1.18,1.75-2.79,3.11-4.16,4.57-1.37,1.45-2.55,3.22-4.34,4.38-.78.5-1.66,1.37-2.16,2.17-1.12,1.81-2.71,3.23-4.14,4.62-1.97,1.91-3.44,4.19-5.33,6.14-1.96,2.03-3.78,4.29-5.78,6.23-2.09,2.03-3.71,4.62-6.33,6.11-.62,2.16-2.75,3.07-4,4.75-1.76,2.36-4.17,4.18-5.89,6.7-1.6,2.33-4,4.1-6.01,6.16-.73.75-1.33,1.59-2.17,2.28-.99.82-1.44,2.55-2.49,2.97-1.39.55-1.38,2.32-2.84,2.52-.93,2-2.86,3.15-4.21,4.82-1.71,2.12-3.92,3.84-5.5,6.15-1.07,1.58-2.84,2.59-3.7,4.37-1.55.25-1.78,1.95-2.96,2.7-1,.63-1.46,2.11-2.46,2.77-1.3.86-2,2.14-3.03,3.18-.78.78-1.51,1.82-2.29,2.35-1.18.81-1.82,1.99-2.81,2.89-1.98,1.81-3.63,3.99-5.4,6.02-1.4,1.61-2.82,3.21-4.18,4.86-1.12,1.36-3.61,1.44-4.53-.13-.73-1.25-1.38-2.52-2.42-3.54-.53-.52-1.13-1.01-1.55-1.61-1.4-2.07-2.54-4.36-4.16-6.24-1.3-1.51-2.68-2.87-3.57-4.71-.47-.96-1.3-1.95-2.07-2.63-1.32-1.16-2.03-2.66-3.04-3.98-.81-1.06-1.35-2.4-2.32-3.26-1.24-1.1-2.34-2.36-2.93-3.78-.59-1.42-1.72-2.34-2.57-3.39-.9-1.11-1.94-2.24-2.62-3.42-.91-1.6-2.09-2.87-3.3-4.19-.82-.9-1.49-1.95-2.18-2.97-.84-1.25-1.41-2.76-2.48-3.75-1.45-1.34-2.46-2.89-3.42-4.55-.59-1.02-1.32-1.99-2.16-2.81-1.16-1.14-2.4-2.3-2.92-3.78-.52-1.47-1.73-2.28-2.57-3.39-.91-1.2-1.98-2.38-2.71-3.66-.84-1.46-2.05-2.53-3.03-3.82-.93-1.22-1.75-2.52-2.6-3.8-.22-.32-.26-.79-.52-1.05-2.03-2.04-4.01-4.08-5.21-6.81-.37-.84-1.19-1.77-1.92-2.39-1.34-1.14-2.3-2.56-3.05-4-.69-1.32-1.89-2.1-2.59-3.36-.7-1.24-2.18-2.14-2.59-3.42-.5-1.59-1.84-2.38-2.65-3.64-1.01-1.57-2.64-2.75-3.24-4.67-.08-.27-.38-.48-.59-.71-.87-.91-2.05-1.66-2.55-2.74-1.08-2.33-2.82-2.8-5.15-2.79-29.99.04-59.98.03-89.97.03-.56,0-1.13-.07-1.67.04-.57.11-1.11.39-1.77.64,1.17,2.02,2.11,3.88,3.29,5.56.63.9,1.38,1.73,2.03,2.64.57.81,2.92,3.05,2.97,3.64.13,1.66,2.15,1.99,2.35,3.54,1.39,0,1.05,1.4,1.64,2.06.66.74,1.11,1.66,1.67,2.5.17.25.35.5.56.71.86.89,1.78,1.74,2.6,2.67.65.74,1.22,1.56,1.75,2.4.81,1.27,1.33,2.84,2.4,3.81,1.57,1.43,2.59,3.11,3.68,4.86.56.9,1.3,1.79,2,2.64.66.79,2.95,3.15,3.08,3.88.26,1.48,1.57,2.24,2.38,3.21.96,1.16,1.95,2.36,2.71,3.6.91,1.48,2.08,2.65,3.16,3.94.83.99,1.55,2.09,2.28,3.17.83,1.24,1.41,2.73,2.47,3.73,1.41,1.34,2.66,2.7,3.38,4.51.11.28.27.71.48.76,1.41.37,1.08,2.47,2.67,2.61,1.02,1.86,1.94,3.78,3.64,5.16-.1,1.29,1.29,1.41,1.78,2.26.62,1.07,1.35,2.08,2.04,3.12.69,1.04,1.23,2.24,2.11,3.09,1.45,1.4,2.83,2.77,3.44,4.76.08.26.39.46.61.68.87.88,1.88,1.67,2.6,2.67,1.7,2.36,3,4.94,5.18,7.05,1.56,1.51,2.35,3.83,3.93,5.51.96,1.02,1.6,2.35,2.57,3.36,1.12,1.16,1.39,2.84,2.83,3.86,1.03.73,1.4,2.36,2.41,3.15,1.4,1.09,1.16,3.31,3.01,3.96-.31,1.41,1.32,1.11,1.72,1.98.64,1.4,1.3,2.91,2.35,3.96.77.77,1.13,1.82,1.93,2.42,1.32,1.01,2.36,2.33,2.91,3.73.57,1.43,1.7,2.34,2.55,3.37.96,1.17,1.89,2.43,2.71,3.65.96,1.42,2.07,2.64,3.17,3.92.85.99,1.89,2.02,2.22,3.2.45,1.61,1.82,2.4,2.63,3.64.97,1.48,2.34,2.75,3.24,4.36.57,1.03,1.15,2.22,2.06,2.85,1.48,1.02,2.32,2.53,3.06,3.94.69,1.31,1.8,2.17,2.57,3.36.9,1.38,2.2,2.53,2.93,4.04.28.58.55.95,1.07,1.38.94.77,1.69,1.85,2.27,2.94,1.12,2.11-1.12,2.97-1.97,4.2-1.19,1.72-3.02,2.98-4.43,4.56-1.56,1.74-2.76,3.83-4.47,5.37-1.66,1.49-3,3.28-4.69,4.75-.71.62-1.41,1.46-2.13,2.2-.87.89-1.53,1.98-2.39,2.87-.87.9-2.17,1.49-2.75,2.52-.78,1.36-2.06,2.12-2.99,3.25-1.38,1.67-3.04,3.13-4.28,4.9-1.33,1.89-2.9,3.65-4.5,5.13-1.51,1.4-2.4,3.53-4.51,4.29-.81,2.08-2.97,3.01-4.15,4.85-.43.67-1.17,1.53-1.9,2.08-1.9,1.4-3.14,3.39-4.83,4.94-1.19,1.09-1.77,2.6-2.92,3.59-2.83,2.44-4.73,5.79-7.84,7.93.03,1.38-1.45,1.43-2.04,2.3-.69,1.03-1.54,1.98-2.42,2.86-.83.83-1.99,1.38-2.64,2.31-.95,1.35-1.96,2.55-3.28,3.56-.82.63-1.43,1.54-2.11,2.35-1.11,1.32-2.17,2.67-3.29,3.99-1.47,1.73-2.88,3.52-4.5,5.1-.76.74-1.34,1.82-2.1,2.26-1.87,1.09-3.08,2.86-4.41,4.32-1.45,1.59-3.15,3.02-4.42,4.87-1.17,1.7-3.12,2.83-4.5,4.4-1.96,2.24-3.74,4.63-5.76,6.84-2,2.2-4.5,3.97-6,6.62-1.37-.07-.99,1.49-1.78,1.93-1.41.78-2.19,2.13-3.26,3.22-.74.75-1.43,1.53-2.15,2.29-.9.96-1.97,1.76-2.85,2.73-1.76,1.95-3.51,3.92-5.13,5.99-.81,1.04-2.21,1.79-2.14,3.64,1.03.05,1.97.14,2.91.14,7.36.01,14.71,0,22.07,0,.64,0,1.31.04,1.9-.14.54-.16,1.1-.51,1.49-.92,1.8-1.93,3.53-3.92,5.31-5.86,1.29-1.4,2.54-2.84,3.86-4.21,1-1.05,2.01-2.13,3.04-3.17.78-.79,1.68-1.49,2.33-2.37.87-1.18,1.99-2.09,2.96-3.16.75-.82,1.39-1.7,2.31-2.41,1.03-.8,1.75-2,2.63-3.01,1.71-1.96,3.74-3.61,5.2-5.84,1.11-1.69,2.56-3.18,4.03-4.59,1.66-1.59,3.3-3.16,4.72-4.98.75-.96,1.81-1.68,2.69-2.55.84-.83,1.64-1.7,2.43-2.58.84-.93,1.64-1.9,2.49-2.81.91-.99,1.89-1.91,2.79-2.9,1.19-1.31,2.32-2.69,3.52-3.99,1.3-1.42,2.85-2.66,3.93-4.23,1.19-1.74,2.71-3.22,4.13-4.62,1.43-1.41,2.52-3.35,4.5-4.21.14-1.17,1.51-1.4,1.85-2.12.65-1.39,1.98-2,2.8-3.16,1.36-1.92,3.16-3.53,4.73-5.32.88-1,1.59-2.15,2.51-3.1,1.51-1.56,3.34-2.85,4.63-4.56,1.25-1.67,2.76-3.1,4.16-4.56,1.43-1.5,2.9-3.09,4.51-4.49,1.85-1.62,3.45-3.63,5.21-5.43,2.22-2.27,4.11-4.86,6.16-7.29.77-.92,1.56-1.83,2.39-2.69.91-.94,1.93-1.79,2.83-2.75.81-.86,1.35-2.26,2.31-2.6,1.15-.41,1.03-1.5,1.8-2,.73-.48,1.39-1.07,2.19-1.69Z"/>
      <path class="cls-2" d="M212.78,268.67c-.8.63-1.46,1.22-2.19,1.69-.76.5-.65,1.59-1.8,2-.96.34-1.5,1.74-2.31,2.6-.9.96-1.91,1.81-2.83,2.75-.83.86-1.62,1.77-2.39,2.69-2.05,2.44-3.95,5.02-6.16,7.29-1.76,1.8-3.36,3.81-5.21,5.43-1.6,1.4-3.07,2.99-4.51,4.49-1.39,1.45-2.91,2.89-4.16,4.56-1.28,1.71-3.12,3-4.63,4.56-.92.95-1.63,2.11-2.51,3.1-1.57,1.78-3.37,3.39-4.73,5.32-.83,1.17-2.16,1.77-2.8,3.16-.34.73-1.71.95-1.85,2.12-1.98.86-3.07,2.8-4.5,4.21-1.42,1.4-2.95,2.88-4.13,4.62-1.07,1.57-2.63,2.81-3.93,4.23-1.2,1.31-2.33,2.68-3.52,3.99-.9.99-1.88,1.92-2.79,2.9-.85.92-1.64,1.89-2.49,2.81-.79.87-1.59,1.75-2.43,2.58-.88.87-1.94,1.58-2.69,2.55-1.42,1.82-3.06,3.39-4.72,4.98-1.47,1.4-2.92,2.9-4.03,4.59-1.46,2.23-3.49,3.88-5.2,5.84-.88,1.01-1.6,2.21-2.63,3.01-.92.71-1.56,1.58-2.31,2.41-.97,1.07-2.09,1.98-2.96,3.16-.65.88-1.55,1.58-2.33,2.37-1.03,1.05-2.04,2.13-3.04,3.17-1.31,1.38-2.57,2.81-3.86,4.21-1.78,1.94-3.51,3.94-5.31,5.86-.39.42-.95.76-1.49.92-.6.18-1.27.14-1.9.14-7.36,0-14.71.01-22.07,0-.94,0-1.88-.09-2.91-.14-.07-1.85,1.32-2.6,2.14-3.64,1.62-2.07,3.37-4.04,5.13-5.99.88-.98,1.95-1.77,2.85-2.73.72-.77,1.41-1.55,2.15-2.29,1.07-1.08,1.85-2.44,3.26-3.22.79-.43.4-2,1.78-1.93,1.5-2.65,4-4.43,6-6.62,2.02-2.21,3.79-4.6,5.76-6.84,1.38-1.58,3.33-2.71,4.5-4.4,1.27-1.84,2.97-3.28,4.42-4.87,1.33-1.45,2.55-3.23,4.41-4.32.76-.44,1.34-1.52,2.1-2.26,1.62-1.58,3.03-3.37,4.5-5.1,1.12-1.31,2.18-2.67,3.29-3.99.68-.81,1.29-1.72,2.11-2.35,1.32-1.01,2.33-2.21,3.28-3.56.65-.93,1.81-1.48,2.64-2.31.88-.88,1.72-1.83,2.42-2.86.59-.87,2.07-.93,2.04-2.3,3.11-2.14,5.01-5.49,7.84-7.93,1.16-1,1.73-2.5,2.92-3.59,1.69-1.54,2.93-3.54,4.83-4.94.74-.54,1.48-1.41,1.9-2.08,1.17-1.84,3.34-2.77,4.15-4.85,2.11-.76,3-2.89,4.51-4.29,1.61-1.49,3.18-3.25,4.5-5.13,1.24-1.76,2.9-3.23,4.28-4.9.94-1.13,2.22-1.89,2.99-3.25.59-1.03,1.88-1.62,2.75-2.52.86-.89,1.53-1.98,2.39-2.87.72-.74,1.42-1.59,2.13-2.2,1.69-1.47,3.04-3.25,4.69-4.75,1.71-1.55,2.92-3.64,4.47-5.37,1.42-1.58,3.24-2.84,4.43-4.56.85-1.23,3.08-2.09,1.97-4.2-.58-1.09-1.34-2.17-2.27-2.94-.52-.43-.79-.8-1.07-1.38-.74-1.51-2.03-2.67-2.93-4.04-.78-1.18-1.88-2.05-2.57-3.36-.74-1.4-1.58-2.91-3.06-3.94-.91-.63-1.49-1.82-2.06-2.85-.9-1.62-2.26-2.89-3.24-4.36-.81-1.24-2.19-2.03-2.63-3.64-.33-1.19-1.37-2.22-2.22-3.2-1.1-1.27-2.21-2.49-3.17-3.92-.82-1.22-1.74-2.49-2.71-3.65-.85-1.03-1.98-1.94-2.55-3.37-.56-1.4-1.59-2.72-2.91-3.73-.79-.61-1.15-1.66-1.93-2.42-1.06-1.05-1.71-2.56-2.35-3.96-.4-.88-2.04-.58-1.72-1.98-1.85-.65-1.61-2.87-3.01-3.96-1.01-.79-1.38-2.42-2.41-3.15-1.44-1.02-1.71-2.7-2.83-3.86-.97-1.01-1.61-2.34-2.57-3.36-1.58-1.68-2.37-4.01-3.93-5.51-2.18-2.11-3.48-4.69-5.18-7.05-.72-1-1.73-1.78-2.6-2.67-.22-.22-.53-.41-.61-.68-.61-1.99-1.99-3.36-3.44-4.76-.88-.85-1.42-2.05-2.11-3.09-.69-1.04-1.42-2.04-2.04-3.12-.49-.85-1.88-.97-1.78-2.26-1.7-1.37-2.62-3.3-3.64-5.16-1.59-.14-1.27-2.24-2.67-2.61-.21-.06-.37-.48-.48-.76-.72-1.82-1.97-3.17-3.38-4.51-1.05-1-1.63-2.48-2.47-3.73-.72-1.08-1.44-2.17-2.28-3.17-1.08-1.29-2.25-2.46-3.16-3.94-.76-1.24-1.76-2.44-2.71-3.6-.81-.98-2.12-1.73-2.38-3.21-.13-.73-2.42-3.09-3.08-3.88-.71-.85-1.44-1.74-2-2.64-1.09-1.75-2.11-3.43-3.68-4.86-1.07-.97-1.58-2.54-2.4-3.81-.53-.83-1.1-1.65-1.75-2.4-.82-.94-1.74-1.78-2.6-2.67-.21-.22-.39-.46-.56-.71-.55-.84-1.01-1.76-1.67-2.5-.59-.66-.25-2.07-1.64-2.06-.19-1.56-2.22-1.89-2.35-3.54-.05-.59-2.39-2.83-2.97-3.64-.65-.91-1.4-1.74-2.03-2.64-1.18-1.68-2.11-3.54-3.29-5.56.66-.25,1.2-.53,1.77-.64.54-.11,1.12-.04,1.67-.04,29.99,0,59.98.01,89.97-.03,2.33,0,4.07.47,5.15,2.79.5,1.08,1.68,1.83,2.55,2.74.21.22.51.43.59.71.6,1.92,2.24,3.1,3.24,4.67.81,1.26,2.14,2.05,2.65,3.64.41,1.28,1.89,2.18,2.59,3.42.7,1.26,1.9,2.04,2.59,3.36.75,1.44,1.71,2.86,3.05,4,.73.62,1.55,1.56,1.92,2.39,1.21,2.73,3.18,4.76,5.21,6.81.26.26.3.73.52,1.05.85,1.28,1.67,2.58,2.6,3.8.98,1.29,2.19,2.36,3.03,3.82.74,1.28,1.8,2.46,2.71,3.66.84,1.11,2.05,1.92,2.57,3.39.52,1.48,1.76,2.64,2.92,3.78.84.82,1.57,1.79,2.16,2.81.96,1.66,1.97,3.21,3.42,4.55,1.07.99,1.64,2.5,2.48,3.75.68,1.02,1.35,2.07,2.18,2.97,1.2,1.32,2.39,2.58,3.3,4.19.67,1.18,1.72,2.31,2.62,3.42.86,1.06,1.99,1.97,2.57,3.39.58,1.41,1.68,2.68,2.93,3.78.97.86,1.51,2.19,2.32,3.26,1.01,1.32,1.72,2.82,3.04,3.98.77.68,1.6,1.66,2.07,2.63.89,1.85,2.27,3.2,3.57,4.71,1.62,1.88,2.76,4.17,4.16,6.24.41.61,1.01,1.09,1.55,1.61,1.04,1.03,1.68,2.3,2.42,3.54.92,1.57,3.41,1.49,4.53.13,1.36-1.65,2.78-3.25,4.18-4.86,1.78-2.03,3.42-4.21,5.4-6.02.98-.9,1.63-2.08,2.81-2.89.77-.53,1.51-1.57,2.29-2.35,1.03-1.03,1.73-2.32,3.03-3.18,1-.66,1.46-2.13,2.46-2.77,1.18-.75,1.41-2.45,2.96-2.7.86-1.78,2.63-2.8,3.7-4.37,1.57-2.31,3.79-4.03,5.5-6.15,1.35-1.67,3.28-2.82,4.21-4.82,1.46-.2,1.45-1.98,2.84-2.52,1.05-.41,1.5-2.15,2.49-2.97.84-.69,1.43-1.53,2.17-2.28,2.01-2.05,4.41-3.83,6.01-6.16,1.73-2.52,4.14-4.34,5.89-6.7,1.25-1.68,3.39-2.59,4-4.75,2.62-1.49,4.24-4.08,6.33-6.11,2-1.94,3.81-4.21,5.78-6.23,1.89-1.95,3.36-4.23,5.33-6.14,1.43-1.39,3.02-2.81,4.14-4.62.49-.8,1.38-1.66,2.16-2.17,1.79-1.16,2.97-2.93,4.34-4.38,1.38-1.46,2.99-2.82,4.16-4.57,1.15-1.7,2.86-3.02,4.34-4.49.99-.99,1.71-2.21,2.65-3.26,1.15-1.3,2.29-1.52,3.73-1.53,4.4,0,8.8,0,13.19,0,3.04,0,6.08,0,9.12,0,.86,0,1.72.08,2.75.13-.07.64.05,1.26-.19,1.5-2.9,2.9-5.27,6.27-8.21,9.16-1.53,1.5-2.98,3.26-4.45,4.87-1.34,1.47-2.53,3.28-4.43,4.23-.84.42-.42,2.02-1.8,1.92-2.1,2.49-4.18,5-6.31,7.46-1.36,1.57-2.79,3.08-4.19,4.61-.99,1.08-2.13,1.99-3,3.22-.57.8-1.4,1.65-2.19,2.19-1.75,1.18-2.45,3.39-4.46,4.23-.69,2.1-2.84,2.96-4,4.76-1.12,1.74-3.4,2.76-4.47,4.52-1.29,2.12-3.25,3.56-4.62,5.54-.64.92-1.41,1.79-2.27,2.5-1.16.96-2.13,2.03-3.03,3.23-.74.97-1.79,1.71-2.69,2.55-.7.65-1.76,1.2-1.99,1.99-.4,1.42-2.38,1.38-2.38,2.96-1.86.99-2.84,2.87-4.27,4.29-1.09,1.08-2.04,2.3-3.03,3.47-.77.9-1.47,1.85-2.28,2.7-1.74,1.83-3.62,3.51-5.08,5.62-.65.94-1.82,1.5-2.65,2.32-.88.87-1.62,1.89-2.48,2.79-.9.95-1.88,1.82-2.81,2.74-.79.78-1.62,1.54-2.34,2.39-2.11,2.47-4.11,5.03-6.27,7.46-1.39,1.57-3.24,2.79-4.41,4.49-1.24,1.79-2.88,3.21-4.31,4.74-1.41,1.52-2.78,3.2-4.52,4.52-1.61,1.22-2.56,3.29-4.12,4.6-.95.8-1.59,1.81-2.49,2.61-1.58,1.42-1.5,3.22-.04,4.74.92.96,1.56,2.2,2.51,3.12,1.98,1.91,2.72,4.73,5.03,6.44,1.03.76,1.48,2.27,2.28,3.37.92,1.28,1.62,2.68,2.97,3.71,1.02.78,1.57,2.19,2.34,3.31.82,1.19,1.6,2.41,2.49,3.54,1.01,1.28,2.19,2.4,3.03,3.85.75,1.29,1.69,2.49,2.77,3.59.99,1.01,1.68,2.3,2.46,3.5.26.4,2.59,3.22,2.99,3.71.77.93,1.51,1.89,2.15,2.91,1.01,1.62,2,3.18,3.46,4.5,1.08.98,1.63,2.54,2.46,3.81.54.82,1.12,1.62,1.75,2.37.81.96,1.69,1.86,2.52,2.8.25.29.55.58.68.92.64,1.78,2,2.99,3.2,4.35.94,1.06,1.6,2.37,2.46,3.52.9,1.22,1.88,2.38,2.83,3.55.71.88,1.64,1.64,2.1,2.63.9,1.92,2.12,3.46,3.68,4.9,1.07.99,1.58,2.59,2.4,3.88.53.83,1.11,1.63,1.75,2.37.82.95,1.73,1.82,2.59,2.74.21.22.46.47.54.75.54,1.94,2.07,3.11,3.34,4.52,1.01,1.11,1.59,2.59,2.52,3.78.87,1.13,1.59,2.36,2.73,3.32.9.75,1.56,1.85,2.16,2.89.96,1.66,2.01,3.17,3.47,4.49,1.09.99,1.64,2.55,2.48,3.83.54.82,1.11,1.63,1.74,2.38.8.96,1.68,1.86,2.53,2.79.21.23.59.46.59.69,0,1.7,1.66,2.34,2.31,3.66.57,1.15,1.84,1.95,2.68,2.99.87,1.08,1.41,2.38,2.24,3.51.76,1.05,1.73,2.07,2.5,3.12,1.13,1.54,1.95,3.28,3.22,4.71.59.66,1.09,1.41,1.73,2.01,1.96,1.83,2.59,4.71,4.95,6.21.35,1.65,2.35,2.23,2.53,4.07.1,1.07,1.59,1.25,1.92,2.53.26,1,1.61,1.69,2.42,2.57.3.33.46.79.65,1.21.71,1.55,1.93,2.69,3.05,3.92.76.83,1.62,1.68,2.07,2.69,1.16,2.65,3.33,4.48,5.04,6.67.29.37.48.82.74,1.22.79,1.2,1.53,2.45,2.43,3.57.78.99,2.26,1.72,2.51,2.77.43,1.88,2.49,2.62,2.68,4.54.03.35.57.65.95,1.05-1.18.87-2.4.7-3.57.7-17.11,0-34.23,0-51.34,0-13.12,0-26.23-.03-39.34.03-2.16.01-3.52-.73-4.55-2.65-.5-.93-1.4-1.71-2.1-2.58-1.14-1.41-2.72-2.5-3.12-4.38-.26-1.24-2.24-1.11-1.95-2.66-1.7-1.27-2.82-2.89-3.63-4.89-.43-1.06-1.73-1.75-2.53-2.7-.82-.98-1.55-2.04-2.26-3.1-.79-1.19-1.33-2.61-2.32-3.57-.72-.69-1.22-1.53-1.86-2.15-.91-.89-1.32-1.87-1.85-2.92-.4-.8-1.23-1.45-1.84-2.19-1.3-1.59-2.72-3-3.55-4.98-.45-1.06-1.71-1.76-2.5-2.71-.87-1.04-1.98-2.09-2.33-3.32-.46-1.6-1.79-2.45-2.66-3.58-.99-1.29-2.19-2.49-2.96-3.95-.74-1.41-1.8-2.49-2.9-3.59-.79-.79-1.55-1.7-2.03-2.7-1.26-2.61-3.36-4.55-5.12-6.76-.2-.25-.38-.53-.49-.82-.65-1.72-2.23-2.76-3.15-4.21-.86-1.35-2.45-2.23-2.63-4.03-.12-1.23-2.14-1.15-1.95-2.66-1.7-1.27-2.98-2.84-3.63-4.89-1.44-.42-1.35-2.25-2.76-2.87-.83-.37-1.4-1.58-1.84-2.53-.88-1.88-2.27-3.27-3.61-4.8-.81-.92-1.22-2.27-2.17-3.28-.9-.95-1.34-2.35-2.26-3.26-1.49-1.46-2.79-2.92-3.57-4.95-.4-1.05-1.7-1.76-2.58-2.63-.21-.21-.5-.45-.55-.72-.44-2.03-2.37-3.01-3.27-4.6-1.28-2.25-3.64-3.66-4.39-6.31-.26-.93-1.5-1.58-2.36-2.42ZM357.65,367.33c-.27-.79-.38-1.3-.62-1.73-.25-.45-.68-.81-.96-1.25-.82-1.28-1.39-2.8-2.45-3.81-1.46-1.39-2.68-2.83-3.54-4.65-.46-.99-1.18-1.91-1.95-2.7-1.19-1.21-2.72-3.12-3.34-4.49-.12-.27-.26-.59-.48-.76-1.81-1.39-3.17-3.27-4.26-5.15-1.27-2.17-2.93-4.03-4.5-5.87-1.14-1.34-1.2-3.46-3.09-4.16.31-1.43-1.32-1.13-1.74-1.96-.69-1.36-1.45-2.7-2.29-3.97-.61-.92-1.38-1.74-2.12-2.57-1.05-1.18-2.38-2.22-2.88-3.72-.49-1.46-1.68-2.34-2.55-3.38-.91-1.1-1.83-2.24-2.57-3.41-.96-1.53-2.01-2.89-3.31-4.14-.86-.83-1.46-1.92-2.13-2.93-.83-1.26-1.37-2.83-2.46-3.78-1.54-1.35-2.51-2.96-3.51-4.67-.55-.93-1.26-1.94-2.02-2.6-1.24-1.08-2.39-2.32-2.89-3.72-.53-1.49-2.24-1.95-2.44-3.51-1.39,0-1.04-1.41-1.64-2.07-.67-.73-1.12-1.66-1.67-2.49-.17-.25-.36-.49-.57-.71-.86-.9-1.75-1.77-2.58-2.7-.6-.67-1.52-1.37-1.61-2.14-.21-1.82-2.23-2.41-2.45-4.11-1.85-1.24-2.76-3.14-3.86-4.99-.48-.81-1.11-1.79-1.88-2.42-1.27-1.04-2.37-2.29-2.92-3.7-.55-1.44-1.69-2.37-2.55-3.41-.95-1.16-1.76-2.45-2.75-3.58-.97-1.11-1.47-2.67-2.51-3.67-1.4-1.34-2.73-2.64-3.34-4.53-.09-.28-.32-.64-.56-.72-1.34-.45-1.38-2.01-2.56-2.78-1.14-.75-1.4-2.71-2.4-3.82-.76-.84-1.23-1.91-2.03-2.62-1.22-1.08-2.38-2.28-2.92-3.72-.54-1.44-1.7-2.32-2.54-3.4-.91-1.18-2.09-2.34-2.68-3.61-.67-1.44-1.87-2.36-2.68-3.61-1-1.54-2.64-2.69-3.2-4.62-.08-.27-.36-.49-.58-.71-.88-.88-1.9-1.65-2.62-2.65-.89-1.24-1.41-2.75-2.34-3.95-.64-.82-1.2-1.85-1.92-2.41-1.4-1.09-2.33-2.52-3.04-3.93-.67-1.33-2.03-2.02-2.53-3.43-.19-.53-2.83-3.32-2.92-3.73-.33-1.58-1.89-2.23-2.63-3.53-.66-1.16-1.75-2.08-2.53-3.19-.86-1.22-1.39-2.76-2.44-3.76-1.47-1.39-2.68-2.84-3.55-4.68-.45-.96-1.26-1.99-2.01-2.59-1.32-1.06-2.3-2.42-2.88-3.75-.61-1.41-1.75-2.31-2.57-3.39-.89-1.17-1.73-2.47-2.79-3.56-.61-.63-.27-1.86-1.6-2.14-.82-.17-.44-1.59-1.62-2.09-.96-.41-1.49-1.87-2.17-2.9-.82-1.25-1.36-2.81-2.44-3.74-1.52-1.29-2.42-2.9-3.42-4.52-.62-1-1.32-1.97-2.13-2.83-.8-.85-2.77-3.26-3.2-4.12-.22-.44-.57-.83-.89-1.22-.79-.97-1.54-1.98-2.41-2.88-1.32-1.38-1.69-3.39-3.37-4.57-.91-.64-1.38-1.89-2.06-2.85-1.39-1.98-2.63-4.1-4.23-5.9-1.22-1.37-2.51-2.63-3.28-4.33-.16-.34-.37-.66-.6-.97-.94-1.29-2.37-2.2-2.94-3.79-.13-.37-.4-.69-.64-1.01-1.7-2.27-3.8-4.23-5.11-6.8-.48-.95-1.01-2.25-1.83-2.57-1.48-.58-1.63-2.09-2.7-2.97-1.28-1.06-1.87-2.96-2.79-4.54h-44.54c.29.96.28,1.98.76,2.32,1.16.84,1.02,2.73,2.66,3.08.04,1.56,2.12,1.77,2.18,3.38.02.46.51,1.03.94,1.33,1.08.76,1.38,2.08,2.47,2.93,1.11.86,1.62,2.48,2.45,3.73.63.95,1.18,2.2,2.1,2.64.97.47.72,1.39,1.26,1.82.68.53,1.55.78,1.57,1.87,0,.29.18.63.38.87.84.97,1.87,1.82,2.54,2.9.64,1.04,1.48,1.84,2.27,2.71,1.32,1.44,1.71,3.57,3.47,4.69.14,1.58,2.15,1.96,2.29,3.59.04.4.47.84.82,1.13.98.83,1.46,2.02,2.46,2.9,1.08.95,1.63,2.5,2.45,3.76.58.89,1.12,1.86,1.88,2.58,1.3,1.24,2.61,2.43,3.25,4.17.13.35.36.78.66.95,1.14.61,1.06,2.32,2.48,2.64-.16,1.34,1.3,1.4,1.78,2.22.82,1.4,1.33,3.1,2.44,4.18,1.48,1.43,2.7,2.96,3.67,4.75.5.94,1.02,2.17,1.86,2.57,1.39.65,1.32,2.46,2.75,2.88.74,1.98,2.16,3.43,3.53,4.99.65.74,1.59,1.47,1.93,2.39.7,1.87,2.13,3.1,3.25,4.61.71.95,1.66,1.7,2.24,2.75.74,1.36,1.34,2.9,2.41,3.95,1.41,1.38,2.64,2.79,3.54,4.54.52,1.01,1.1,2.2,1.99,2.75,1.31.81,1.85,2.13,2.69,3.19,1.17,1.47,2.23,3.03,3.37,4.52.87,1.13,2.23,1.99,2.65,3.65.3,1.21,1.56,2.18,2.42,3.24.83,1.03,1.75,1.98,2.5,3.06.88,1.27,1.37,2.89,2.45,3.9,1.39,1.31,2.54,2.69,3.43,4.35.54,1.01,1.04,2.41,1.92,2.79,1.46.61,1.38,2.43,2.8,2.85.73,2.08,1.93,3.8,3.76,5.07-.16,1.46,1.49,1.62,1.95,2.74.58,1.39,1.41,2.77,2.45,3.86,1.23,1.3,2.5,2.52,3.24,4.17.13.29.31.56.5.81,1.69,2.28,3.88,4.15,5.12,6.78.47,1.01,1.15,2.11,2.05,2.68,1.22.78,2,2.03,2.48,3.04,1.1,2.32,3.33,3.75,4.27,6.1,1.92.79,1.7,3.26,3.38,4.29.66.4,1.29,1.09,1.58,1.8.63,1.5,1.85,2.56,2.66,3.93,1.48,2.48,3.89,4.34,5.19,7.02.46.95,1.02,1.98,1.83,2.59,1.49,1.12,2.4,2.61,3.32,4.14.62,1.04,1.15,2.22,2.02,3.01,1.47,1.34,2.85,2.67,3.49,4.61.09.27.37.48.58.7.82.87,2.17,1.64,2.34,2.62.24,1.38,1.58,1.41,2.01,2.46.58,1.41,1.31,2.88,2.36,3.94,1.38,1.4,2.68,2.76,3.54,4.56.48,1.01,1.1,2.3,1.99,2.71,1.42.65,1.31,2.45,2.71,2.92.67,2.02,1.83,3.67,3.64,4.83-.09,1.5,1.72,1.69,2.03,2.97.2.8.7,1.44,1.35,2.1,1.33,1.37,2.69,2.87,3.66,4.43,1.14,1.82,2.45,3.43,3.7,5.13.58.79,1.56,1.28,1.85,2.21.35,1.09,1.06,1.85,1.71,2.74.63.86,1.38,1.54,2.03,2.33.95,1.15,1.53,2.58,2.36,3.84.61.94,1.22,1.96,2.08,2.64,1.15.91,2.12,2.05,2.65,3.24,1.01,2.29,2.87,3.88,4.3,5.77,1.28,1.7,2.01,3.78,4.29,5.4h43.9Z"/>
      <path class="cls-1" d="M357.65,367.33h-43.9c-2.28-1.63-3.01-3.7-4.29-5.4-1.42-1.89-3.29-3.48-4.3-5.77-.52-1.19-1.5-2.34-2.65-3.24-.86-.68-1.47-1.7-2.08-2.64-.82-1.26-1.41-2.7-2.36-3.84-.65-.79-1.4-1.47-2.03-2.33-.65-.88-1.36-1.64-1.71-2.74-.3-.93-1.27-1.42-1.85-2.21-1.25-1.7-2.56-3.31-3.7-5.13-.98-1.56-2.34-3.06-3.66-4.43-.65-.66-1.15-1.3-1.35-2.1-.31-1.28-2.12-1.47-2.03-2.97-1.8-1.17-2.97-2.81-3.64-4.83-1.4-.47-1.29-2.27-2.71-2.92-.9-.41-1.51-1.69-1.99-2.71-.85-1.81-2.16-3.16-3.54-4.56-1.05-1.06-1.78-2.53-2.36-3.94-.43-1.05-1.76-1.08-2.01-2.46-.17-.98-1.53-1.75-2.34-2.62-.21-.22-.49-.44-.58-.7-.64-1.95-2.02-3.27-3.49-4.61-.87-.79-1.39-1.97-2.02-3.01-.92-1.53-1.82-3.02-3.32-4.14-.81-.61-1.37-1.65-1.83-2.59-1.3-2.68-3.71-4.54-5.19-7.02-.81-1.37-2.03-2.43-2.66-3.93-.3-.7-.92-1.39-1.58-1.8-1.68-1.03-1.46-3.5-3.38-4.29-.94-2.35-3.17-3.78-4.27-6.1-.48-1.01-1.26-2.26-2.48-3.04-.9-.57-1.57-1.68-2.05-2.68-1.24-2.63-3.44-4.51-5.12-6.78-.19-.26-.37-.53-.5-.81-.74-1.66-2.01-2.88-3.24-4.17-1.03-1.09-1.87-2.47-2.45-3.86-.46-1.11-2.11-1.28-1.95-2.74-1.83-1.26-3.03-2.99-3.76-5.07-1.42-.43-1.34-2.24-2.8-2.85-.88-.37-1.38-1.78-1.92-2.79-.89-1.66-2.04-3.04-3.43-4.35-1.08-1.02-1.58-2.63-2.45-3.9-.75-1.08-1.67-2.03-2.5-3.06-.85-1.06-2.11-2.03-2.42-3.24-.42-1.66-1.78-2.52-2.65-3.65-1.14-1.49-2.21-3.05-3.37-4.52-.85-1.06-1.39-2.38-2.69-3.19-.89-.55-1.47-1.74-1.99-2.75-.9-1.75-2.14-3.16-3.54-4.54-1.07-1.05-1.66-2.59-2.41-3.95-.58-1.05-1.53-1.8-2.24-2.75-1.12-1.51-2.56-2.73-3.25-4.61-.34-.92-1.29-1.65-1.93-2.39-1.37-1.56-2.79-3.01-3.53-4.99-1.44-.42-1.36-2.23-2.75-2.88-.84-.39-1.35-1.63-1.86-2.57-.97-1.8-2.18-3.32-3.67-4.75-1.12-1.08-1.63-2.78-2.44-4.18-.48-.82-1.93-.88-1.78-2.22-1.41-.31-1.34-2.03-2.48-2.64-.3-.16-.53-.59-.66-.95-.64-1.75-1.95-2.93-3.25-4.17-.76-.72-1.3-1.69-1.88-2.58-.82-1.26-1.37-2.81-2.45-3.76-.99-.88-1.48-2.07-2.46-2.9-.35-.3-.78-.73-.82-1.13-.14-1.63-2.15-2.01-2.29-3.59-1.76-1.12-2.16-3.25-3.47-4.69-.79-.87-1.63-1.67-2.27-2.71-.67-1.08-1.7-1.92-2.54-2.9-.2-.23-.38-.57-.38-.87-.02-1.09-.9-1.34-1.57-1.87-.54-.43-.29-1.34-1.26-1.82-.91-.44-1.47-1.7-2.1-2.64-.83-1.25-1.34-2.87-2.45-3.73-1.09-.84-1.39-2.17-2.47-2.93-.43-.3-.92-.87-.94-1.33-.06-1.61-2.15-1.83-2.18-3.38-1.64-.34-1.51-2.24-2.66-3.08-.48-.35-.47-1.37-.76-2.32h44.54c.92,1.58,1.51,3.48,2.79,4.54,1.07.88,1.22,2.39,2.7,2.97.83.32,1.35,1.62,1.83,2.57,1.31,2.57,3.41,4.53,5.11,6.8.24.32.51.64.64,1.01.56,1.6,1.99,2.5,2.94,3.79.22.31.44.63.6.97.77,1.7,2.06,2.96,3.28,4.33,1.6,1.79,2.84,3.91,4.23,5.9.68.97,1.15,2.21,2.06,2.85,1.68,1.19,2.05,3.2,3.37,4.57.86.9,1.62,1.91,2.41,2.88.32.39.66.78.89,1.22.43.86,2.4,3.27,3.2,4.12.8.85,1.51,1.83,2.13,2.83,1,1.62,1.9,3.23,3.42,4.52,1.09.93,1.62,2.49,2.44,3.74.67,1.03,1.21,2.49,2.17,2.9,1.18.5.8,1.92,1.62,2.09,1.34.28,1,1.52,1.6,2.14,1.05,1.09,1.9,2.39,2.79,3.56.82,1.08,1.96,1.98,2.57,3.39.58,1.34,1.56,2.7,2.88,3.75.75.6,1.56,1.63,2.01,2.59.87,1.84,2.08,3.29,3.55,4.68,1.05,1,1.57,2.53,2.44,3.76.78,1.11,1.87,2.02,2.53,3.19.74,1.3,2.29,1.95,2.63,3.53.09.41,2.73,3.19,2.92,3.73.5,1.41,1.86,2.1,2.53,3.43.71,1.41,1.64,2.84,3.04,3.93.72.56,1.28,1.59,1.92,2.41.93,1.2,1.45,2.72,2.34,3.95.72.99,1.74,1.77,2.62,2.65.22.22.5.44.58.71.56,1.92,2.2,3.07,3.2,4.62.81,1.25,2.01,2.17,2.68,3.61.59,1.27,1.77,2.43,2.68,3.61.84,1.08,2,1.96,2.54,3.4.54,1.44,1.7,2.64,2.92,3.72.8.71,1.27,1.78,2.03,2.62,1,1.11,1.26,3.07,2.4,3.82,1.17.77,1.22,2.33,2.56,2.78.24.08.47.44.56.72.61,1.89,1.94,3.19,3.34,4.53,1.05,1,1.54,2.57,2.51,3.67,1,1.13,1.8,2.42,2.75,3.58.85,1.04,1.99,1.97,2.55,3.41.55,1.42,1.64,2.66,2.92,3.7.77.63,1.4,1.62,1.88,2.42,1.1,1.85,2,3.76,3.86,4.99.22,1.7,2.24,2.29,2.45,4.11.09.77,1.01,1.46,1.61,2.14.83.93,1.73,1.8,2.58,2.7.21.22.4.46.57.71.56.83,1.01,1.76,1.67,2.49.6.66.25,2.07,1.64,2.07.2,1.56,1.91,2.02,2.44,3.51.49,1.4,1.64,2.63,2.89,3.72.77.67,1.48,1.68,2.02,2.6,1,1.7,1.97,3.32,3.51,4.67,1.09.95,1.63,2.52,2.46,3.78.66,1.01,1.27,2.11,2.13,2.93,1.3,1.25,2.35,2.62,3.31,4.14.74,1.18,1.66,2.32,2.57,3.41.87,1.04,2.06,1.92,2.55,3.38.5,1.5,1.83,2.54,2.88,3.72.74.83,1.51,1.65,2.12,2.57.84,1.27,1.6,2.61,2.29,3.97.42.83,2.05.53,1.74,1.96,1.89.7,1.95,2.83,3.09,4.16,1.57,1.84,3.23,3.7,4.5,5.87,1.1,1.88,2.45,3.76,4.26,5.15.22.17.36.49.48.76.62,1.36,2.15,3.27,3.34,4.49.77.79,1.49,1.71,1.95,2.7.86,1.83,2.08,3.27,3.54,4.65,1.06,1.01,1.63,2.53,2.45,3.81.28.44.71.79.96,1.25.24.43.35.94.62,1.73Z"/>
    </g>
  </g>
</svg>